M48
INCH
T01C0.0600
T02C0.0300
T03C0.0450
T04C0.0400
%
T01
X+014500Y+012000
X+009775Y+012000
X+012137Y+012787
X+009775Y+007196
X+014500Y+007196
X+021500Y+012000
X+016775Y+012000
X+019137Y+012787
X+016775Y+007196
X+021500Y+007196
T02
X+023000Y+009000
X+024000Y+009000
X+025000Y+009000
X+026000Y+009000
X+027000Y+009000
X+028000Y+009000
X+029000Y+009000
X+030000Y+009000
X+031000Y+009000
X+032000Y+009000
X+032000Y+012000
X+031000Y+012000
X+030000Y+012000
X+029000Y+012000
X+028000Y+012000
X+027000Y+012000
X+026000Y+012000
X+025000Y+012000
X+024000Y+012000
X+023000Y+012000
X+025500Y+007500
X+023500Y+007500
X+010000Y+022500
X+014000Y+022500
X+013500Y+002500
X+011500Y+002500
X+016500Y+024500
X+007000Y+014500
X+013500Y+024500
X+032000Y+024500
T03
X+012500Y+017000
X+015500Y+017000
T04
X+010000Y+019500
X+010000Y+015500
X+008500Y+019500
X+008500Y+015500
X+011500Y+021000
X+012500Y+021000
X+013500Y+021000
M30
